# xmcd CD database file
#
# Track frame offsets:
#	150
#	11836
#	28122
#	41497
#	63601
#	73844
#	94704
#	110273
#	129154
#	144236
#
# Disc length: 2071 seconds
#
# Revision: 0
# Processed by: cddbd v1.4b41PL3 Copyright (c) Steve Scherf et al.
# Submitted via: CdAid 2001.05.15.01
#
DISCID=8508150a
DTITLE=Zach Warm - From the Heart of the Heartland
DYEAR=1900
DGENRE=
TTITLE0=From the Heart of the Heartland
TTITLE1=Take My Hand
TTITLE2=Hall of Everything
TTITLE3=Hook, Line and Sinker
TTITLE4=Sometimes You Win
TTITLE5=Could This Be Real
TTITLE6=When They Talk About Romance
TTITLE7=The Heart That Always Breaks
TTITLE8=On the Beaten Track
TTITLE9=Grandpa's Song
EXTD=Music and Lyrics by Ryan Betts
EXTT0=
EXTT1=
EXTT2=
EXTT3=
EXTT4=
EXTT5=
EXTT6=
EXTT7=
EXTT8=
EXTT9=
PLAYORDER=
